<svg width="17" height="17" viewBox="0 0 17 17" fill="none" xmlns="http://www.w3.org/2000/svg">
<g clip-path="url(#clip0_418_86)">
<path d="M10.7002 16.7095C15.2344 15.4967 17.9257 10.8423 16.7115 6.31356C15.4972 1.78486 10.8371 -0.903193 6.30291 0.309616C1.76871 1.52242 -0.922612 6.17683 0.291671 10.7055C1.50595 15.2342 6.16602 17.9223 10.7002 16.7095Z" fill="#EDEDED"/>
<path d="M10.93 7.66307C11.3203 7.10358 11.9126 7.30307 12.1123 7.72039C11.6371 7.51632 11.233 8.44267 11.6945 8.8577C11.5384 8.93336 11.2399 8.97005 11.0104 8.77744C10.7923 8.59401 10.6178 8.18815 10.93 7.66307Z" fill="#344E41"/>
<path d="M9.94287 11.7491C9.39878 11.5451 9.2794 10.793 9.53423 10.4077C9.56178 10.3665 9.59851 10.3114 9.62835 10.2748C10.1036 9.68546 10.813 9.81616 11.0012 10.2404C10.79 9.89183 9.68345 10.9947 9.94287 11.7491Z" fill="#344E41"/>
<path d="M7.48647 12.5906C7.99383 12.1275 8.59302 12.171 8.79735 12.6938C8.52415 12.382 7.65177 12.9438 7.56453 13.6431C7.28904 13.4207 7.17425 12.9369 7.48647 12.5906Z" fill="#344E41"/>
<path d="M5.24339 13.2969C5.81962 12.8933 6.30173 13.329 6.24204 13.7119C5.94359 13.2854 5.43853 13.7027 5.27553 14.1728C4.94494 13.7715 5.04366 13.4482 5.24339 13.2969Z" fill="#344E41"/>
<path d="M4.13928 13.4895C4.03597 13.4024 3.92118 13.3611 3.82706 13.4138C3.82247 13.4161 3.81558 13.423 3.80869 13.4253C3.70538 13.5101 3.71457 13.7303 3.82935 13.9343C3.87527 14.0146 3.92807 14.0788 3.98317 14.1269C3.42989 14.0031 3.40694 13.3083 3.54009 13.2006C3.54698 13.196 3.55616 13.1891 3.56305 13.1868C3.7513 13.079 3.99924 13.2487 4.13928 13.4895Z" fill="#344E41"/>
<path d="M10.6477 5.91583C10.4709 5.244 11.2262 4.74413 11.892 5.09266C12.1078 5.20501 12.2432 5.38157 12.3006 5.57189C11.8254 5.28985 11.2124 5.57418 11.2767 6.06029C11.2836 6.11532 11.2997 6.15889 11.3134 6.19328C11.3869 6.35837 11.5246 6.47302 11.6785 6.53722C11.3456 6.58767 10.9323 6.45926 10.7211 6.09239C10.6959 6.04653 10.666 5.98921 10.6477 5.91583Z" fill="#344E41"/>
<path d="M9.47911 9.60292C9.3735 9.58687 9.27019 9.5433 9.17607 9.46534C8.92124 9.25439 8.79038 8.80038 9.03144 8.33721C9.06128 8.28676 9.09572 8.22485 9.15082 8.16065C9.58471 7.64015 10.262 7.76626 10.4387 8.33721C10.2574 8.13543 9.86709 8.2409 9.57553 8.64905C9.53191 8.71096 9.49977 8.76599 9.47681 8.80956C9.28856 9.17872 9.33448 9.47681 9.47911 9.60292Z" fill="#344E41"/>
<path d="M11.3273 3.68938C11.2952 3.09321 11.9586 2.86162 12.2456 3.19639C11.8943 3.33397 11.3227 3.73982 12.0964 4.28784C11.6212 4.2672 11.3457 4.01956 11.3273 3.68938Z" fill="#344E41"/>
<path d="M8.96493 10.942C8.61827 10.7104 7.8974 11.5061 8.17748 11.9807C6.84365 11.2034 8.37721 9.85514 8.96493 10.942Z" fill="#344E41"/>
<path d="M9.51823 6.52118C9.47231 6.59914 9.45395 6.65646 9.43328 6.71608C9.32998 7.08295 9.46772 7.3604 9.66056 7.44524C9.68582 7.4567 9.71107 7.46358 9.73632 7.47046C9.55266 7.51861 9.35523 7.49339 9.18534 7.3604C8.95118 7.17696 8.81114 6.77799 8.9948 6.36525C9.02923 6.29876 9.05908 6.23685 9.13025 6.15889C9.45395 5.79431 9.9659 5.86539 10.207 6.20933C9.98886 6.1222 9.6927 6.22309 9.51823 6.52118Z" fill="#344E41"/>
<path d="M9.78439 4.25574C9.7798 4.28096 9.7775 4.31765 9.77521 4.34287C9.77061 4.58134 9.89458 4.7579 10.0507 4.84503C10.0163 4.84274 9.97953 4.83815 9.94279 4.82898C9.65812 4.76478 9.35967 4.50567 9.34131 4.12963C9.34131 4.09982 9.34131 4.05854 9.3459 4.02874C9.42625 3.45091 10.255 3.33168 10.6109 3.8453C10.6154 3.85218 10.62 3.85906 10.6246 3.86594C10.3239 3.67562 9.86244 3.8453 9.78439 4.25574Z" fill="#344E41"/>
<path d="M7.7021 9.31859C7.42202 9.6075 7.38529 9.901 7.43579 10.0821C7.3256 10.034 7.22918 9.95603 7.15571 9.83909C7.0019 9.59145 7.0019 9.16725 7.36922 8.81414C7.41054 8.77974 7.46105 8.73388 7.52762 8.69261C8.05105 8.3716 8.62958 8.6972 8.61581 9.24292C8.48724 9.01133 8.04876 9.00904 7.7021 9.31859Z" fill="#344E41"/>
<path d="M11.5773 1.25883C11.5888 0.983675 11.9263 1.17628 12.0595 1.28176C11.7472 1.20839 11.7863 1.46061 11.8 1.57526C11.7174 1.50188 11.6462 1.42392 11.6049 1.34826C11.5934 1.32762 11.575 1.29093 11.5773 1.25883Z" fill="#344E41"/>
<path d="M10.3285 2.58875C10.076 2.44888 9.98875 2.24252 9.94743 2.17602C9.93365 2.15309 9.91758 2.12328 9.91069 2.08889C9.83723 1.72431 10.6453 1.59819 11.0632 1.90774C11.1825 1.99488 11.2376 2.09347 11.2399 2.1829C11.2262 2.17143 11.2124 2.15997 11.1963 2.1485C10.6293 1.74265 10.2275 2.3136 10.3285 2.58875Z" fill="#344E41"/>
<path d="M6.12724 11.7904C6.09739 11.8087 6.05837 11.834 6.03082 11.8546C5.78288 12.0403 5.68416 12.2329 5.68416 12.382C5.56937 12.2994 5.47984 12.1779 5.43392 12.0197C5.35357 11.7468 5.45229 11.3639 5.86093 11.1667C5.89537 11.153 5.94128 11.1346 5.97572 11.1231C6.4739 10.9787 6.9032 11.3043 6.92386 11.7193C6.77923 11.5886 6.46012 11.5886 6.12724 11.7904Z" fill="#344E41"/>
<path d="M9.96811 0.752089C10.0255 0.538844 10.8749 0.596168 11.0379 0.823171L11.0402 0.825464C10.7395 0.697058 10.1747 0.694765 10.1288 0.866737C10.1219 0.896546 10.1357 0.919475 10.1472 0.937819C10.0806 0.908011 10.0255 0.871323 9.99107 0.832343C9.97959 0.813999 9.95893 0.786484 9.96811 0.752089Z" fill="#344E41"/>
<path d="M8.61357 5.45724C8.62734 5.48246 8.648 5.51456 8.66407 5.53749C8.7031 5.59252 8.74672 5.63838 8.79034 5.67278C8.74213 5.67965 8.69392 5.68195 8.64111 5.67736C8.39088 5.65672 8.10391 5.46641 8.04193 5.14081C8.03963 5.11329 8.03274 5.07661 8.03274 5.04909C8.02815 4.5905 8.57913 4.3612 8.95793 4.60197C8.73524 4.60884 8.36103 5.00323 8.61357 5.45724Z" fill="#344E41"/>
<path d="M8.14751 7.00729C7.9914 6.97977 7.76183 7.09442 7.5598 7.35123C7.50011 7.42919 7.46797 7.48422 7.43353 7.54155C7.30956 7.77084 7.27742 7.96116 7.30497 8.09186C7.13509 8.06205 6.98357 7.96574 6.89633 7.79377C6.77006 7.54613 6.81139 7.14945 7.13279 6.86971C7.18789 6.82614 7.2384 6.78716 7.32793 6.74818C7.67 6.59685 8.00288 6.73901 8.14751 7.00729Z" fill="#344E41"/>
<path d="M8.71236 3.01524C8.70547 3.03358 8.69858 3.0611 8.69169 3.07944C8.67333 3.18033 8.69629 3.26975 8.7422 3.34542C8.57691 3.23077 8.45064 3.05422 8.46671 2.85702C8.46901 2.83639 8.4736 2.80658 8.48049 2.78594C8.60905 2.38467 9.38501 2.41907 9.63754 2.81575C9.36894 2.62085 8.84321 2.69651 8.71236 3.01524Z" fill="#344E41"/>
<path d="M6.109 9.71986C6.04701 9.77948 6.01258 9.82993 5.97584 9.88037C5.80825 10.1349 5.76923 10.3825 5.81055 10.5499C5.68428 10.4972 5.57409 10.3917 5.50522 10.2266C5.39502 9.96292 5.44323 9.54789 5.74397 9.26815C5.79448 9.22688 5.84269 9.1856 5.92304 9.15121C6.29036 8.98841 6.62784 9.24522 6.69671 9.62815C6.57274 9.48598 6.33857 9.49515 6.109 9.71986Z" fill="#344E41"/>
<path d="M3.9693 12.3911C3.8086 12.1894 3.73284 11.8477 3.94405 11.5726C3.96242 11.5519 3.98767 11.5244 4.00833 11.5061C4.2379 11.3043 4.55013 11.357 4.75674 11.5473C4.63048 11.5198 4.49273 11.5496 4.37565 11.6528C4.35728 11.6689 4.33662 11.6918 4.32285 11.7078C4.14378 11.9349 3.96701 11.9647 3.9693 12.3911Z" fill="#344E41"/>
<path d="M8.9189 1.34367C8.9166 1.37119 8.92349 1.39412 8.92808 1.41246C8.95563 1.47896 9.01532 1.53628 9.09108 1.58673C8.92808 1.52711 8.78804 1.4331 8.74212 1.32303C8.73753 1.30469 8.72835 1.28176 8.73294 1.25425C8.76049 1.01349 9.46299 0.956161 9.80046 1.19234C9.44233 1.06852 8.94185 1.14189 8.9189 1.34367Z" fill="#344E41"/>
<path d="M7.69773 0.956173C7.70232 0.981396 7.7138 0.999739 7.72298 1.01579C7.76431 1.06853 7.83088 1.10751 7.91353 1.13044C7.75283 1.11668 7.6036 1.06853 7.53244 0.979103C7.52325 0.963052 7.50948 0.944708 7.50718 0.919486C7.47045 0.697069 8.08801 0.467773 8.45532 0.596179C8.10178 0.575542 7.66788 0.768151 7.69773 0.956173Z" fill="#344E41"/>
<path d="M7.34169 2.51539C7.10293 2.35488 6.59786 2.50392 6.57031 2.71487C6.56802 2.72634 6.57031 2.74239 6.57031 2.75385C6.5795 2.8043 6.61393 2.85016 6.66674 2.88914C6.48996 2.85245 6.35222 2.75385 6.33156 2.63921C6.32926 2.62545 6.32926 2.6071 6.33156 2.59564C6.3637 2.32736 7.06849 2.14622 7.29577 2.43055C7.31873 2.45577 7.3325 2.48558 7.34169 2.51539Z" fill="#344E41"/>
<path d="M6.94453 5.59023C6.91468 5.64526 6.89861 5.69571 6.88484 5.73469C6.82285 5.94335 6.84581 6.1222 6.91468 6.2506C6.85729 6.23226 6.80219 6.20245 6.75168 6.15889C6.56114 6.00296 6.43946 5.68654 6.57491 5.38157C6.59098 5.34718 6.61394 5.3059 6.64837 5.26234C6.86647 4.98718 7.2315 4.98718 7.46337 5.17979C7.27282 5.21189 7.07079 5.34947 6.94453 5.59023Z" fill="#344E41"/>
<path d="M5.91845 7.75249C5.86106 7.8144 5.82892 7.86255 5.79677 7.913C5.63378 8.18586 5.62 8.43579 5.69117 8.57795C5.51899 8.56649 5.36058 8.47477 5.27564 8.28904C5.17233 8.06663 5.21595 7.70205 5.49833 7.44294C5.54654 7.40396 5.59016 7.36498 5.66821 7.33059C5.95289 7.1976 6.22608 7.30995 6.35694 7.53466C6.22608 7.52778 6.06538 7.59657 5.91845 7.75249Z" fill="#344E41"/>
<path d="M8.09023 3.44861C8.14533 3.53115 8.16599 3.62058 8.15911 3.70312C8.15911 3.70312 8.15911 3.70312 8.15911 3.70083C7.95479 3.38899 7.33264 3.47612 7.27065 3.82465C7.26836 3.843 7.26606 3.86593 7.26606 3.88198C7.27065 3.97599 7.30968 4.05395 7.36937 4.11815C7.17882 4.04707 7.00894 3.88885 6.99976 3.66873C6.99976 3.64809 7.00205 3.61829 7.00435 3.59765C7.07781 3.17345 7.84 3.06798 8.09023 3.44861Z" fill="#344E41"/>
<path d="M7.94798 2.35716C7.7804 2.29525 7.63576 2.18977 7.61281 2.05907C7.61051 2.04532 7.61051 2.02468 7.61281 2.01092C7.65643 1.76099 8.34515 1.67615 8.6413 1.91691C8.29923 1.78621 7.52557 1.93525 7.94798 2.35716Z" fill="#344E41"/>
<path d="M4.57323 9.89182C4.49747 9.8987 4.44697 9.91705 4.39416 9.93539C4.1049 10.0569 3.90747 10.3344 3.92583 10.5981C3.92813 10.637 3.93731 10.6737 3.94649 10.7081C3.81334 10.637 3.71462 10.4995 3.69855 10.3046C3.6733 10.0111 3.86155 9.70609 4.14852 9.57998C4.20132 9.55934 4.24953 9.541 4.32529 9.53641C4.60308 9.51348 4.79133 9.69463 4.84184 9.92851C4.76608 9.89641 4.67654 9.88036 4.57323 9.89182Z" fill="#344E41"/>
<path d="M2.89021 11.6574C2.86496 11.6712 2.84889 11.6895 2.83512 11.7033C2.72492 11.8385 2.75936 12.0633 2.85119 12.2123C2.92235 12.3292 3.01648 12.398 3.10601 12.421C2.94072 12.4897 2.71344 12.398 2.56192 12.1504C2.43795 11.944 2.38974 11.6414 2.53896 11.4556C2.55733 11.4373 2.58029 11.4121 2.61243 11.3937C2.84659 11.2538 3.13586 11.4648 3.25524 11.7583C3.15422 11.6414 3.01189 11.584 2.89021 11.6574Z" fill="#344E41"/>
<path d="M6.46261 1.63718C6.46491 1.64406 6.4695 1.65094 6.47409 1.65781C6.49934 1.68533 6.54985 1.70138 6.61413 1.70826C6.46031 1.71743 6.31339 1.69909 6.26288 1.64635C6.25829 1.63947 6.2514 1.6303 6.2514 1.62342C6.21008 1.46291 6.95849 1.17859 7.21332 1.34827C7.2271 1.35744 7.23857 1.36661 7.24546 1.37807C6.98834 1.28406 6.43047 1.50648 6.46261 1.63718Z" fill="#344E41"/>
<path d="M5.70486 1.18087C5.70945 1.18546 5.71634 1.19233 5.72093 1.19463C5.75307 1.21297 5.80128 1.21985 5.86097 1.21756C5.72782 1.24507 5.59467 1.25195 5.53039 1.21297C5.5235 1.20838 5.51661 1.20151 5.51202 1.19463C5.42478 1.06851 5.98724 0.733743 6.26732 0.839219C6.28109 0.846098 6.29487 0.850683 6.30405 0.859855C6.05381 0.823168 5.63369 1.07998 5.70486 1.18087Z" fill="#344E41"/>
<path d="M3.00045 9.65107C2.99126 9.65337 2.98208 9.65566 2.9706 9.65795C2.92928 9.674 2.90632 9.69464 2.88107 9.71528C2.73184 9.86203 2.71118 10.112 2.76858 10.2839C2.83286 10.4765 2.96831 10.5637 3.09687 10.5339C2.93387 10.7494 2.6492 10.7081 2.50227 10.3986C2.40585 10.1968 2.39437 9.88725 2.55278 9.68547C2.58032 9.65566 2.60558 9.62585 2.65379 9.60063C2.77546 9.53413 2.89943 9.56394 3.00045 9.65107Z" fill="#344E41"/>
<path d="M2.21989 12.875C2.2153 12.8773 2.213 12.8818 2.20841 12.8864C2.13724 12.9782 2.213 13.1799 2.31402 13.329C2.3737 13.4161 2.43799 13.4849 2.49767 13.533C2.40584 13.556 2.24285 13.423 2.11888 13.1983C2.02475 13.0309 1.96277 12.8108 2.04082 12.7282C2.04541 12.7259 2.05 12.7213 2.0523 12.719C2.13036 12.6686 2.24514 12.742 2.34616 12.8635C2.30024 12.8452 2.25433 12.8475 2.21989 12.875Z" fill="#344E41"/>
<path d="M1.45078 11.0452C1.46226 11.0337 1.47833 11.02 1.49899 11.0108C1.62985 10.9558 1.78596 11.114 1.87779 11.3203C1.81351 11.2286 1.73316 11.1736 1.66199 11.2034C1.64592 11.2103 1.63444 11.2195 1.62526 11.2286C1.5472 11.3203 1.57246 11.5061 1.63215 11.6414C1.70561 11.811 1.81581 11.9028 1.89616 11.8867C1.79285 12.022 1.58394 11.8982 1.45767 11.6047C1.38191 11.4235 1.34518 11.1713 1.45078 11.0452Z" fill="#344E41"/>
<path d="M1.72169 9.43094C1.62757 9.54558 1.62068 9.76342 1.662 9.92163C1.70103 10.0661 1.77449 10.1555 1.84796 10.1784C1.72628 10.3389 1.53344 10.2312 1.45768 9.94685C1.40718 9.76342 1.41636 9.5066 1.52655 9.37361C1.54262 9.35527 1.57247 9.32546 1.61609 9.31629C1.67807 9.30253 1.73547 9.33234 1.78368 9.38508C1.75383 9.39654 1.73317 9.41718 1.72169 9.43094Z" fill="#344E41"/>
<path d="M0.803455 10.7723C0.791976 10.9122 0.803455 11.0475 0.833299 11.1208C0.778201 11.0658 0.716216 10.9374 0.679484 10.7975C0.638161 10.6439 0.622091 10.449 0.68178 10.3825C0.686371 10.3779 0.693259 10.3733 0.700146 10.3711C0.750652 10.3527 0.808046 10.4238 0.853961 10.527C0.828708 10.6003 0.810342 10.6898 0.803455 10.7723Z" fill="#344E41"/>
<path d="M0.851667 8.93795C0.833301 8.94025 0.821822 8.95171 0.810344 8.96318C0.748358 9.03426 0.716218 9.21311 0.734584 9.38737C0.741471 9.44241 0.750654 9.49285 0.764429 9.53642C0.707035 9.51807 0.651937 9.40343 0.635867 9.23833C0.615205 9.06407 0.647346 8.88521 0.711626 8.81413C0.723105 8.80267 0.734584 8.7912 0.75295 8.78891C0.803456 8.78203 0.84478 8.84623 0.870033 8.93795C0.863146 8.93795 0.856259 8.93566 0.851667 8.93795Z" fill="#344E41"/>
<path d="M0.755336 7.76855C0.750745 7.76625 0.746153 7.76396 0.741562 7.76396C0.727787 7.76167 0.716309 7.76625 0.70483 7.77313C0.640549 7.81211 0.573972 7.94052 0.546424 8.0781C0.537241 8.12166 0.532649 8.16294 0.534945 8.19962C0.495917 8.17211 0.482143 8.07122 0.507396 7.94281C0.534945 7.80523 0.601521 7.67683 0.665802 7.63785C0.677281 7.63326 0.68876 7.62638 0.702534 7.62868C0.741562 7.63326 0.757632 7.69288 0.755336 7.76855Z" fill="#344E41"/>
<path d="M2.53449 14.5534C2.08682 14.1155 1.70343 13.6385 1.38432 13.1524C1.06751 12.664 0.801205 12.1687 0.615249 11.6735C0.422407 11.1782 0.293845 10.6898 0.206606 10.2289C0.149213 9.9331 0.112481 9.64877 0.0895235 9.37591C0.0413128 8.94942 0.0275384 8.52293 0.0459043 8.09873C0.066566 7.59658 0.133143 7.099 0.241043 6.6106C0.684122 4.61802 1.84347 2.802 3.57217 1.57068C3.96704 1.28865 4.38945 1.03871 4.84172 0.823175C4.8486 0.820882 4.85549 0.816296 4.86238 0.814003C8.22565 -0.779603 12.1261 0.0504478 14.5757 2.59792C14.6882 2.70799 14.7938 2.83181 14.904 2.95104C14.966 3.01524 15.0188 3.08633 15.0761 3.15511C15.1312 3.2239 15.1886 3.29269 15.2437 3.36377C15.2965 3.43485 15.3493 3.50823 15.4021 3.5816L15.4825 3.68937L15.556 3.80173C15.6065 3.8774 15.6547 3.95306 15.7052 4.02873C15.7534 4.10669 15.797 4.18465 15.8429 4.26261C16.2125 4.89088 16.4949 5.58106 16.6947 6.30105C16.8852 7.02563 16.9931 7.78231 16.9862 8.54586C16.9816 10.073 16.5569 11.6253 15.7373 12.946C15.2759 13.7486 14.6193 14.4686 13.7446 15.1702C12.8952 15.9017 11.2928 16.6652 10.2436 16.8143C10.1518 16.8326 10.0599 16.8487 9.96812 16.867C9.87629 16.8876 9.78446 16.8945 9.69263 16.9106C9.50897 16.9404 9.32301 16.9541 9.13935 16.9725C8.76974 16.9954 8.40242 17.0069 8.03969 16.9839C7.31194 16.9496 6.60255 16.8097 5.93449 16.6033C5.26413 16.3947 4.63969 16.0989 4.07035 15.7526C3.49182 15.4041 2.98216 14.9937 2.53449 14.5534ZM14.1601 2.92123C14.1234 2.77448 13.8594 2.52684 13.7308 2.48786C13.8548 2.58417 13.988 2.73321 14.0132 2.8341C14.0293 2.89601 13.9949 2.91894 13.9329 2.8983C13.9421 2.90518 13.9489 2.91206 13.9558 2.91665C14.0913 3.01754 14.1854 3.01983 14.1601 2.92123ZM13.251 2.71716C13.1707 2.58187 12.9503 2.23564 12.5095 2.13933C12.7643 2.35716 13.1569 3.03588 12.9296 3.10238C13.0329 3.17116 13.4163 3.08174 13.251 2.71716ZM14.6698 4.46439C14.6652 4.44605 14.6606 4.42541 14.6537 4.40707C14.6537 4.40478 14.6514 4.40019 14.6514 4.3956C14.6446 4.37497 14.6377 4.35433 14.6285 4.3314C14.6239 4.32223 14.6216 4.31306 14.617 4.30389C14.6147 4.29701 14.6101 4.28784 14.6078 4.28096C14.6032 4.26949 14.5986 4.26032 14.5917 4.24886C14.5895 4.24198 14.5849 4.2351 14.5826 4.23051C14.578 4.21905 14.5711 4.20758 14.5665 4.19841C14.5642 4.19382 14.5596 4.18694 14.5573 4.18236C14.5504 4.17089 14.5458 4.15943 14.5389 4.14796C14.5367 4.14338 14.5344 4.13879 14.5298 4.13421C14.5229 4.12274 14.516 4.11128 14.5091 4.09981C14.5068 4.09752 14.5045 4.09293 14.5022 4.09064C14.4563 4.01956 14.4058 3.95536 14.3507 3.89803L14.3484 3.89574C14.3392 3.88427 14.3277 3.8751 14.3163 3.86364C14.314 3.86135 14.314 3.86135 14.3117 3.85905C14.3002 3.84988 14.291 3.83842 14.2795 3.82924C14.2772 3.82695 14.2772 3.82695 14.2749 3.82466C14.2175 3.77192 14.1579 3.72606 14.1005 3.68937C14.0982 3.68708 14.0959 3.68708 14.0936 3.68479C14.0844 3.67791 14.0729 3.67332 14.0637 3.66644C14.0614 3.66415 14.0568 3.66186 14.0545 3.66186C14.0454 3.65727 14.0362 3.65269 14.027 3.6481C14.0224 3.64581 14.0201 3.64351 14.0155 3.64122C14.0063 3.63664 13.9971 3.63205 13.988 3.62746C13.9834 3.62517 13.9788 3.62288 13.9765 3.62288C13.9673 3.61829 13.9581 3.616 13.9512 3.61141C13.9466 3.60912 13.9443 3.60912 13.9398 3.60683C13.9191 3.59995 13.8984 3.59307 13.8801 3.58848C13.8801 3.58848 13.8801 3.58848 13.8778 3.58848C13.8709 3.58619 13.864 3.58619 13.8571 3.5839C13.8525 3.5816 13.8456 3.5816 13.841 3.57931C13.8342 3.57702 13.8296 3.57702 13.8227 3.57702C13.8158 3.57702 13.8112 3.57473 13.8043 3.57473C13.7974 3.57473 13.7928 3.57473 13.7859 3.57243C13.7791 3.57243 13.7745 3.57243 13.7676 3.57243C13.763 3.57243 13.7561 3.57243 13.7515 3.57243C13.7446 3.57243 13.74 3.57243 13.7331 3.57243C13.7285 3.57243 13.724 3.57243 13.7194 3.57473C13.7125 3.57473 13.7056 3.57702 13.6987 3.57931C13.6941 3.57931 13.6918 3.5816 13.6872 3.5816C13.678 3.5839 13.6666 3.58619 13.6574 3.59078C13.6551 3.59078 13.6551 3.59307 13.6528 3.59307C13.6459 3.59536 13.6367 3.59995 13.6298 3.60453C13.6275 3.60683 13.6229 3.60912 13.6206 3.60912C13.6161 3.61141 13.6115 3.61371 13.6069 3.616C13.8778 3.67332 14.2244 3.97141 14.3805 4.3658C14.4838 4.62719 14.4448 4.8519 14.3048 4.94362C14.3071 4.94362 14.3117 4.94362 14.314 4.94591C14.3277 4.94821 14.3415 4.9505 14.3553 4.95279C14.3576 4.95279 14.3622 4.95279 14.3645 4.95279C14.3805 4.95279 14.3943 4.95279 14.4104 4.95279C14.415 4.95279 14.4196 4.95279 14.4219 4.95279C14.4356 4.9505 14.4494 4.9505 14.4632 4.94591C14.4655 4.94591 14.4701 4.94362 14.4724 4.94362C14.4838 4.94133 14.4953 4.93674 14.5068 4.93216C14.5091 4.93216 14.5091 4.92986 14.5114 4.92986C14.5229 4.92528 14.5344 4.9184 14.5458 4.91152C14.5481 4.90923 14.5504 4.90693 14.555 4.90693C14.5642 4.90006 14.5757 4.89088 14.5849 4.884C14.5872 4.88171 14.5895 4.87942 14.5917 4.87713C14.6009 4.86795 14.6078 4.85878 14.6147 4.84961C14.6147 4.84732 14.617 4.84732 14.617 4.84502C14.6239 4.83356 14.6308 4.82209 14.6377 4.81063C14.64 4.80834 14.6423 4.80375 14.6423 4.80146C14.6491 4.78999 14.6537 4.77624 14.6583 4.76477C14.6606 4.76019 14.6606 4.75789 14.6629 4.75331C14.6675 4.74184 14.6698 4.72808 14.6721 4.71433C14.6721 4.71203 14.6744 4.70745 14.6744 4.70515C14.6767 4.6914 14.679 4.67764 14.6813 4.66159C14.6813 4.657 14.6813 4.65242 14.6836 4.64783C14.6836 4.63178 14.6859 4.61573 14.6836 4.59968C14.6836 4.59509 14.6836 4.59051 14.6836 4.58592C14.6836 4.56987 14.6813 4.55382 14.679 4.53777C14.679 4.53548 14.679 4.53318 14.679 4.53089C14.6767 4.51255 14.6744 4.4942 14.6698 4.47586C14.6721 4.47357 14.6698 4.46898 14.6698 4.46439ZM15.5445 5.8287C15.3746 5.52374 15.3287 5.22566 15.4412 5.16375C15.4917 5.13623 15.5651 5.16145 15.6478 5.22566C15.5032 5.03534 15.3493 4.92986 15.2644 4.97802C15.1519 5.03993 15.1978 5.33801 15.3677 5.64297C15.4618 5.81036 15.572 5.94564 15.6707 6.02361C15.6248 5.96399 15.5835 5.89979 15.5445 5.8287ZM13.0238 4.48962C13.414 4.77853 13.5793 5.42514 13.0857 5.61546C13.4416 5.61775 13.8387 5.49622 13.6344 4.92298C13.5127 4.57904 13.2373 4.48503 13.0238 4.48962ZM14.9705 6.10615C14.6836 5.57418 14.314 5.49852 14.0821 5.86081C14.2612 5.68425 14.6262 5.8287 14.7846 6.21392C14.9453 6.60372 14.9246 6.65417 14.9017 6.91786C15.0761 6.79863 15.1565 6.4501 14.9705 6.10615ZM15.9853 8.91732C16.0013 8.91961 16.0174 8.91732 16.0312 8.91273C15.8682 8.82331 15.7052 8.58255 15.634 8.3051C15.5468 7.96574 15.634 7.70205 15.8269 7.7181C15.8843 7.72269 15.9439 7.7502 16.0013 7.79606C15.8797 7.54613 15.7213 7.36728 15.5858 7.35811C15.393 7.34206 15.3241 7.67912 15.4343 8.1102C15.5468 8.54127 15.7924 8.90127 15.9853 8.91732ZM13.6344 6.83761C13.6344 6.83531 13.6321 6.83531 13.6321 6.83302C13.6206 6.81926 13.6069 6.8055 13.5954 6.79175C13.5908 6.78716 13.5885 6.78487 13.5839 6.78028C13.4668 6.65417 13.3199 6.54411 13.1638 6.48908C13.724 7.01187 13.538 7.93364 13.0123 7.90612C13.7033 7.99326 14.1005 7.39709 13.6344 6.83761ZM15.8429 10.3596C15.8705 10.3688 15.9003 10.3711 15.9302 10.3619C15.882 10.2931 15.8728 10.1784 15.9164 10.0638C15.9577 9.94915 16.0404 9.8689 16.1207 9.84826C16.1023 9.82304 16.0794 9.80469 16.0518 9.79323C15.9485 9.75425 15.8177 9.85055 15.7603 10.0065C15.7029 10.1647 15.7396 10.3206 15.8429 10.3596ZM14.6147 9.98125C15.1083 9.55018 14.9912 8.54357 14.2612 8.41516C14.7387 8.71095 14.4425 9.96979 14.0109 10.1784C14.2175 10.2037 14.4471 10.1601 14.6147 9.98125ZM14.5527 12.3613C14.3851 12.4233 14.252 11.9761 14.4379 11.6459C14.8856 10.8411 15.1198 11.3112 15.1221 11.3135C15.1335 11.2149 15.0394 10.9993 14.8787 10.9282C14.7616 10.8755 14.3622 11.036 14.1395 11.5061C13.9191 11.9784 14.1234 12.6319 14.5527 12.3613ZM12.4406 9.35986C12.8286 9.92393 12.2776 10.6691 11.8782 10.754C12.2157 10.8847 12.7184 10.7448 12.8929 10.2083C12.987 9.91476 12.7689 9.47451 12.4406 9.35986ZM11.3019 9.57081C11.481 9.19018 11.9838 9.04114 12.3029 8.96318C12.6656 8.88522 12.8447 8.30281 12.5279 7.86944C12.3304 7.61033 12.1399 7.14257 12.3327 6.73672C12.5715 6.25061 12.9572 6.3171 12.948 6.07864C12.9388 5.83329 12.7689 5.62692 12.6335 5.471C12.5853 5.41826 12.5371 5.36782 12.4797 5.27839C12.156 4.78082 12.4429 4.40019 12.8653 4.2351C13.2235 4.0723 13.0146 3.52657 12.5761 3.20785C12.3855 3.07027 12.0894 2.81117 12.0527 2.53372C11.7244 1.48813 12.7942 1.78851 12.6541 1.5638C12.5141 1.33909 12.1628 1.11438 11.9149 1.03871C11.9011 1.01349 11.8851 0.990561 11.869 0.965338C11.6188 0.852983 11.3639 0.754386 11.1114 0.669547C10.5306 0.474645 9.94745 0.357704 9.3827 0.295794C8.81795 0.231591 8.27156 0.243056 7.75502 0.279744C7.23847 0.316431 6.75178 0.40127 6.30181 0.513625C5.60161 0.692476 5.00012 0.942409 4.49735 1.2061C4.35272 1.28177 4.21727 1.35743 4.09101 1.4331C4.01984 1.47667 3.95097 1.52023 3.88439 1.5638C3.82011 1.60507 3.75353 1.64405 3.69384 1.68991C3.61579 1.74724 3.53773 1.79998 3.46427 1.85042C3.34719 1.93985 3.2324 2.03156 3.11991 2.12787C1.90316 3.15741 1.03307 4.50337 0.573926 5.98233C0.401745 6.53493 0.286958 7.10359 0.234155 7.68371C0.101002 9.11681 0.33976 10.6049 1.00553 11.9968C1.24658 12.5012 1.53355 12.9713 1.85725 13.4023C1.92153 13.4459 1.98351 13.4895 2.05239 13.5468C2.19702 13.666 2.16029 13.8151 2.40593 14.0192C2.61714 14.065 2.77784 13.8243 3.13139 13.9641C3.84766 14.2507 3.80404 14.8033 4.10708 14.6245C4.37798 14.3883 4.67413 14.3654 4.91977 14.4204C5.14705 14.4732 5.32841 14.5924 5.40647 14.6726C5.75313 15.0235 6.2536 14.9501 6.37757 14.464C6.67372 13.7623 7.48182 13.7646 7.82619 13.9481C8.11315 14.1063 8.32895 14.1338 8.61592 13.9687C8.78581 13.8793 9.16231 13.5537 9.08425 13.1134C8.98554 12.5104 9.32072 11.9165 10.239 11.9876C11.1481 12.0151 11.6509 11.2286 11.3915 10.6233C11.2009 10.073 11.1412 9.91246 11.3019 9.57081ZM13.9535 14.2897C13.9168 14.159 13.9673 13.9779 14.0959 13.822C14.2221 13.666 14.392 13.5812 14.5275 13.5904C14.5137 13.5422 14.4907 13.5009 14.454 13.4711C14.3186 13.3611 14.066 13.4413 13.8915 13.6546C13.7171 13.8678 13.6872 14.1292 13.825 14.2416C13.8594 14.2714 13.903 14.2874 13.9535 14.2897ZM13.0031 12.852C13.1317 12.664 13.2327 12.4439 13.212 12.2192C13.1707 11.811 12.8011 11.6712 12.8011 11.6712C12.8011 11.6712 12.9227 12.1756 12.645 12.6273C12.4016 13.0263 12.2157 13.1662 11.8506 13.1111C12.273 13.4253 12.7483 13.2235 13.0031 12.852ZM10.6775 12.3545C10.7831 12.8956 9.74313 13.5743 9.4929 13.4482C9.94745 13.8839 10.4342 13.6615 10.565 13.5606C10.8566 13.3359 11.0953 12.7122 10.6775 12.3545ZM11.7886 15.3949C11.7863 15.3926 11.7841 15.3926 11.7841 15.3903C11.6509 15.2642 11.7496 14.934 12.0021 14.652C12.2547 14.37 12.5646 14.2416 12.6978 14.3677C12.7552 14.4227 12.7689 14.5144 12.746 14.6245C12.8171 14.4456 12.8148 14.2806 12.7207 14.1797C12.5508 13.9962 12.1399 14.0994 11.8024 14.4112C11.4672 14.7231 11.3341 15.1244 11.504 15.3078C11.5705 15.3766 11.6716 15.4041 11.7886 15.3949ZM10.4686 14.5328C10.3722 15.0281 9.45387 15.3628 8.88682 15.0968C9.08885 15.4683 9.40336 15.5829 9.62835 15.5738C10.2252 15.5508 10.5834 14.9868 10.4686 14.5328ZM10.7647 16.0943C11.0517 16.0232 11.0081 16.0805 11.0999 16.1287C11.1206 16.0278 10.9507 15.8558 10.6752 15.9246C10.3538 16.0049 10.2551 16.3236 10.2826 16.335C10.2643 16.2869 10.4273 16.1791 10.7647 16.0943ZM8.13152 14.613C7.97311 14.9478 7.24077 15.2161 6.6301 14.9134C6.78392 15.3743 7.19026 15.4156 7.36015 15.3995C7.8721 15.3605 8.25779 15.0441 8.13152 14.613ZM8.77203 16.3786C8.91437 16.3534 9.04523 16.374 9.1118 16.4245C9.12787 16.3992 9.13476 16.3717 9.13017 16.3465C9.1141 16.2502 8.94192 16.1998 8.74678 16.2342C8.55164 16.2685 8.40701 16.374 8.42538 16.4703C8.42997 16.4955 8.44604 16.5185 8.46899 16.5368C8.51491 16.4657 8.6297 16.4015 8.77203 16.3786ZM6.96987 16.4726C7.49789 16.5414 8.09708 16.3052 7.89047 16.0324C7.85833 15.9911 7.81012 15.9567 7.75043 15.9292C7.83537 16.1172 7.41984 16.28 7.05252 16.2433C6.81147 16.2181 6.69438 16.1126 6.76785 15.9865C6.77933 15.9728 6.7908 15.959 6.80458 15.9452C6.70586 15.9888 6.62551 16.0461 6.57271 16.1195C6.47629 16.2846 6.63929 16.4291 6.96987 16.4726ZM5.65441 15.5073C5.47534 15.6082 5.12409 15.5646 4.80958 15.3537C4.58689 15.2023 4.41012 14.9639 4.5295 14.785C4.48588 14.8033 4.44685 14.8309 4.41241 14.8653C4.26319 15.051 4.44914 15.3078 4.68561 15.4683C5.09195 15.7412 5.56258 15.7389 5.65441 15.5073ZM3.63645 14.8469C3.54003 14.8538 3.3403 14.7483 3.13598 14.558C3.00971 14.4411 2.89263 14.2966 2.87426 14.2003C2.84671 14.2049 2.82146 14.2141 2.80309 14.2324C2.73422 14.3241 2.87656 14.5213 3.03956 14.6635C3.32882 14.918 3.62268 14.996 3.63645 14.8469Z" fill="#344E41"/>
</g>
<defs>
<clipPath id="clip0_418_86">
<rect width="17" height="17" fill="white"/>
</clipPath>
</defs>
</svg>
